# xmcd CD database file
#
# Track frame offsets:
#	150
#	17515
#	38989
#	62395
#	77880
#	98272
#	115395
#	143200
#	158959
#	170120
#	187800
#
# Disc length: 2688 seconds
#
# Revision: 1
# Processed by: cddbd v1.5.1PL0 Copyright (c) Steve Scherf et al.
# Submitted via: CDex 1.51
#
DISCID=840a7e0b
DTITLE=Arif Sag - Belkis Akkale - Seher Yildizi
DYEAR=1900
DGENRE=
TTITLE0=Seher Yildizi
TTITLE1=Sari Gelin
TTITLE2=Su Daglar
TTITLE3=Dostun Dergahi
TTITLE4=Yar Delisiyim (Münhasiran)
TTITLE5=Dostlarim
TTITLE6=Mektup
TTITLE7=Kirklar Kapisi
TTITLE8=Yavasça
TTITLE9=Sevgi Mengisi
TTITLE10=Yesil Ördek
EXTD=
EXTT0=
EXTT1=
EXTT2=
EXTT3=
EXTT4=
EXTT5=
EXTT6=
EXTT7=
EXTT8=
EXTT9=
EXTT10=
PLAYORDER=
